<?xml version="1.0" encoding="UTF-8" standalone="no"?>
<svg
   xmlns:dc="http://purl.org/dc/elements/1.1/"
   xmlns:cc="http://creativecommons.org/ns#"
   xmlns:rdf="http://www.w3.org/1999/02/22-rdf-syntax-ns#"
   xmlns:svg="http://www.w3.org/2000/svg"
   xmlns="http://www.w3.org/2000/svg"
   xmlns:sodipodi="http://sodipodi.sourceforge.net/DTD/sodipodi-0.dtd"
   xmlns:inkscape="http://www.inkscape.org/namespaces/inkscape"
   inkscape:version="1.0 (4035a4fb49, 2020-05-01)"
   sodipodi:docname="www.math-phys.science-32x32.svg"
   id="svg9"
   version="1.1"
   viewBox="0 0 300 300"
   height="300"
   width="300">
  <metadata
     id="metadata15">
    <rdf:RDF>
      <cc:Work
         rdf:about="">
        <dc:format>image/svg+xml</dc:format>
        <dc:type
           rdf:resource="http://purl.org/dc/dcmitype/StillImage" />
        <dc:title></dc:title>
      </cc:Work>
    </rdf:RDF>
  </metadata>
  <defs
     id="defs13" />
  <sodipodi:namedview
     inkscape:current-layer="svg9"
     inkscape:window-maximized="1"
     inkscape:window-y="-9"
     inkscape:window-x="-9"
     inkscape:cy="150"
     inkscape:cx="150"
     inkscape:zoom="2.7666667"
     showgrid="false"
     id="namedview11"
     inkscape:window-height="1001"
     inkscape:window-width="1920"
     inkscape:pageshadow="2"
     inkscape:pageopacity="0"
     guidetolerance="10"
     gridtolerance="10"
     objecttolerance="10"
     borderopacity="1"
     bordercolor="#666666"
     pagecolor="#ffffff" />
  <rect
     style="stroke-width:1"
     y="128.66667"
     x="128.66667"
     fill="#5488ba"
     height="42.666664"
     width="42.666664"
     id="bg" />
  <path
     style="stroke-width:0.999998"
     id="path3"
     fill="#dcafa3"
     d="M 150,171.33333 Q 145.4477,154.5523 128.66667,150 145.4477,145.4477 150,128.66667 154.5523,145.4477 171.33333,150 154.5523,154.5523 150,171.33333 Z" />
  <path
     style="stroke-width:0.999999"
     id="path5"
     fill="#23505c"
     d="M 150,171.33333 Q 145.97684,154.02316 128.66666,150 145.97684,145.97684 150,128.66666 154.02316,145.97684 171.33333,150 154.02316,154.02316 150,171.33333 Z" />
  <path
     style="stroke-width:1"
     id="path7"
     fill="#ab7745"
     d="M 150,171.33333 Q 159.88889,140.11111 128.66666,150 159.88889,159.88889 150,128.66666 140.11111,159.88889 171.33333,150 140.11111,140.11111 150,171.33333 Z" />
</svg>
